M48
; DRILL file {KiCad (6.0.0-0)} date 2022 January 04, Tuesday 21:53:57
; FORMAT={-:-/ absolute / metric / decimal}
; #@! TF.CreationDate,2022-01-04T21:53:57+01:00
; #@! TF.GenerationSoftware,Kicad,Pcbnew,(6.0.0-0)
; #@! TF.FileFunction,Plated,1,2,PTH
FMAT,2
METRIC
; #@! TA.AperFunction,Plated,PTH,ViaDrill
T1C0.400
; #@! TA.AperFunction,Plated,PTH,ComponentDrill
T2C0.650
; #@! TA.AperFunction,Plated,PTH,ComponentDrill
T3C2.200
%
G90
G05
T1
X99.5Y-79.5
X99.695Y-114.3
X100.33Y-99.06
X100.965Y-87.63
X101.6Y-114.3
X103.505Y-105.41
X103.505Y-114.3
X104.14Y-87.63
X104.648Y-73.406
X105.41Y-111.125
X105.41Y-112.395
X105.41Y-114.3
X105.918Y-80.01
X106.0Y-65.0
X106.0Y-66.0
X106.0Y-69.7
X107.0Y-65.0
X107.0Y-66.0
X107.315Y-114.3
X107.9Y-93.8
X108.0Y-65.0
X108.0Y-66.0
X108.204Y-72.644
X108.585Y-111.125
X108.6Y-82.55
X108.7Y-81.3
X108.712Y-78.74
X108.712Y-80.01
X109.017Y-88.646
X109.22Y-112.395
X109.22Y-114.3
X109.855Y-100.33
X111.0Y-98.5
X111.76Y-108.585
X112.5Y-67.0
X113.0Y-93.0
X114.0Y-94.0
X115.0Y-92.0
X115.5Y-105.0
X116.332Y-89.662
X117.0Y-95.5
X117.5Y-65.0
X117.5Y-66.5
X117.856Y-110.49
X117.856Y-111.633
X119.771Y-71.765
X120.0Y-64.0
X120.0Y-66.0
X120.513Y-72.507
X121.5Y-70.0
X121.92Y-113.03
X122.0Y-66.0
X123.444Y-110.49
X124.46Y-81.28
X124.46Y-82.55
X124.46Y-83.82
X124.46Y-85.09
X124.46Y-86.36
X124.46Y-87.63
X127.508Y-81.28
X127.508Y-82.55
X127.508Y-83.82
X127.508Y-85.09
X127.508Y-86.36
X127.508Y-87.63
T3
X100.0Y-165.0
X119.0Y-61.0
X126.0Y-165.0
T2
X120.322Y-106.932G85X121.422Y-106.932
G05
X120.322Y-115.572G85X121.422Y-115.572
G05
X124.752Y-106.932G85X125.352Y-106.932
G05
X124.752Y-115.572G85X125.352Y-115.572
G05
T0
M30
