G04 #@! TF.GenerationSoftware,KiCad,Pcbnew,(6.0.0-0)*
G04 #@! TF.CreationDate,2022-01-04T22:04:24+01:00*
G04 #@! TF.ProjectId,floaty,666c6f61-7479-42e6-9b69-6361645f7063,0.0.1a*
G04 #@! TF.SameCoordinates,Original*
G04 #@! TF.FileFunction,Profile,NP*
%FSLAX46Y46*%
G04 Gerber Fmt 4.6, Leading zero omitted, Abs format (unit mm)*
G04 Created by KiCad (PCBNEW (6.0.0-0)) date 2022-01-04 22:04:24*
%MOMM*%
%LPD*%
G01*
G04 APERTURE LIST*
G04 #@! TA.AperFunction,Profile*
%ADD10C,0.100000*%
G04 #@! TD*
G04 #@! TA.AperFunction,Profile*
%ADD11C,0.200000*%
G04 #@! TD*
G04 #@! TA.AperFunction,Profile*
%ADD12C,0.120000*%
G04 #@! TD*
G04 APERTURE END LIST*
D10*
X98000000Y-168000000D02*
X111000000Y-176000000D01*
X111000000Y-188000000D02*
X111000000Y-176000000D01*
X115000000Y-176000000D02*
X128000000Y-168000000D01*
X115000000Y-188000000D02*
X115000000Y-176000000D01*
X111000000Y-188000000D02*
G75*
G03*
X115000000Y-188000000I2000000J0D01*
G01*
X127000000Y-117000000D02*
X127000000Y-105000000D01*
X129000000Y-120000000D02*
X129000000Y-152000000D01*
X129000000Y-74000000D02*
X129000000Y-102000000D01*
X127000000Y-105000000D02*
X129000000Y-102000000D01*
X127000000Y-117000000D02*
X129000000Y-120000000D01*
X96000000Y-73000000D02*
X96000000Y-60000000D01*
X97000000Y-152000000D02*
G75*
G03*
X96000000Y-153000000I-1J-999999D01*
G01*
X96000000Y-166000000D02*
X96000000Y-153000000D01*
X96000000Y-166000000D02*
G75*
G03*
X97000000Y-167000000I999999J-1D01*
G01*
X96000000Y-73000000D02*
G75*
G03*
X97000000Y-74000000I999999J-1D01*
G01*
X97000000Y-152000000D02*
X97000000Y-74000000D01*
X97000000Y-59000000D02*
G75*
G03*
X96000000Y-60000000I-1J-999999D01*
G01*
X130000000Y-60000000D02*
X130000000Y-73000000D01*
X130000000Y-60000000D02*
G75*
G03*
X129000000Y-59000000I-999999J1D01*
G01*
X129000000Y-74000000D02*
G75*
G03*
X130000000Y-73000000I1J999999D01*
G01*
X130000000Y-153000000D02*
X130000000Y-166000000D01*
X129000000Y-167000000D02*
G75*
G03*
X130000000Y-166000000I1J999999D01*
G01*
X130000000Y-153000000D02*
G75*
G03*
X129000000Y-152000000I-1000000J0D01*
G01*
D11*
X98000000Y-58000000D02*
X128000000Y-58000000D01*
X128000000Y-168000000D02*
G75*
G03*
X129000000Y-167000000I4J999996D01*
G01*
X97000003Y-167000000D02*
G75*
G03*
X98000000Y-168000000I999997J-3D01*
G01*
X98000000Y-58000003D02*
G75*
G03*
X97000000Y-59000000I-3J-999997D01*
G01*
X128999997Y-59000000D02*
G75*
G03*
X128000000Y-58000000I-999997J3D01*
G01*
D12*
X119950000Y-142000000D02*
X119950000Y-166000000D01*
X123000000Y-103000000D02*
X123000000Y-79000000D01*
X122050000Y-166000000D02*
X122050000Y-142000000D01*
X107000000Y-157000000D02*
X107000000Y-133000000D01*
X103000000Y-133000000D02*
X103000000Y-157000000D01*
X119000000Y-79000000D02*
X119000000Y-103000000D01*
X119950000Y-166000000D02*
G75*
G03*
X122050000Y-166000000I1050000J-9219D01*
G01*
X122050000Y-142000000D02*
G75*
G03*
X119950000Y-142000000I-1050000J0D01*
G01*
X103000000Y-157000000D02*
G75*
G03*
X107000000Y-157000000I2000000J0D01*
G01*
X119000000Y-103000000D02*
G75*
G03*
X123000000Y-103000000I2000000J0D01*
G01*
X123000000Y-79000000D02*
G75*
G03*
X119000000Y-79000000I-2000000J0D01*
G01*
X107000000Y-133000000D02*
G75*
G03*
X103000000Y-133000000I-2000000J0D01*
G01*
M02*
