G04 #@! TF.GenerationSoftware,KiCad,Pcbnew,(6.0.0-0)*
G04 #@! TF.CreationDate,2022-01-04T22:04:23+01:00*
G04 #@! TF.ProjectId,floaty,666c6f61-7479-42e6-9b69-6361645f7063,0.0.1a*
G04 #@! TF.SameCoordinates,Original*
G04 #@! TF.FileFunction,Legend,Bot*
G04 #@! TF.FilePolarity,Positive*
%FSLAX46Y46*%
G04 Gerber Fmt 4.6, Leading zero omitted, Abs format (unit mm)*
G04 Created by KiCad (PCBNEW (6.0.0-0)) date 2022-01-04 22:04:23*
%MOMM*%
%LPD*%
G01*
G04 APERTURE LIST*
%ADD10C,0.150000*%
%ADD11C,0.500000*%
%ADD12C,0.120000*%
%ADD13C,0.127000*%
%ADD14R,6.350000X20.000000*%
%ADD15C,0.700000*%
%ADD16O,2.100000X1.050000*%
%ADD17C,3.800000*%
G04 APERTURE END LIST*
D10*
X101389737Y-82477675D02*
X101437372Y-82620580D01*
X101485007Y-82668214D01*
X101580277Y-82715849D01*
X101723181Y-82715849D01*
X101818451Y-82668214D01*
X101866085Y-82620580D01*
X101913720Y-82525310D01*
X101913720Y-82144231D01*
X100913389Y-82144231D01*
X100913389Y-82477675D01*
X100961024Y-82572945D01*
X101008659Y-82620580D01*
X101103928Y-82668214D01*
X101199198Y-82668214D01*
X101294468Y-82620580D01*
X101342102Y-82572945D01*
X101389737Y-82477675D01*
X101389737Y-82144231D01*
X100913389Y-83001658D02*
X100913389Y-83573276D01*
X101913720Y-83287467D02*
X100913389Y-83287467D01*
X101913720Y-84430702D02*
X101913720Y-83859085D01*
X101913720Y-84144893D02*
X100913389Y-84144893D01*
X101056294Y-84049624D01*
X101151563Y-83954354D01*
X101199198Y-83859085D01*
X119102380Y-152159523D02*
X119102380Y-151588095D01*
X119102380Y-151873809D02*
X118102380Y-151873809D01*
X118245238Y-151778571D01*
X118340476Y-151683333D01*
X118388095Y-151588095D01*
X118102380Y-153064285D02*
X118102380Y-152588095D01*
X118578571Y-152540476D01*
X118530952Y-152588095D01*
X118483333Y-152683333D01*
X118483333Y-152921428D01*
X118530952Y-153016666D01*
X118578571Y-153064285D01*
X118673809Y-153111904D01*
X118911904Y-153111904D01*
X119007142Y-153064285D01*
X119054761Y-153016666D01*
X119102380Y-152921428D01*
X119102380Y-152683333D01*
X119054761Y-152588095D01*
X119007142Y-152540476D01*
D11*
X105270228Y-160274380D02*
X105270228Y-166369619D01*
X108317847Y-163322000D02*
X102222609Y-163322000D01*
D10*
X106297619Y-67788095D02*
X106250000Y-67835714D01*
X106202380Y-67930952D01*
X106202380Y-68169047D01*
X106250000Y-68264285D01*
X106297619Y-68311904D01*
X106392857Y-68359523D01*
X106488095Y-68359523D01*
X106630952Y-68311904D01*
X107202380Y-67740476D01*
X107202380Y-68359523D01*
X106202380Y-68978571D02*
X106202380Y-69073809D01*
X106250000Y-69169047D01*
X106297619Y-69216666D01*
X106392857Y-69264285D01*
X106583333Y-69311904D01*
X106821428Y-69311904D01*
X107011904Y-69264285D01*
X107107142Y-69216666D01*
X107154761Y-69169047D01*
X107202380Y-69073809D01*
X107202380Y-68978571D01*
X107154761Y-68883333D01*
X107107142Y-68835714D01*
X107011904Y-68788095D01*
X106821428Y-68740476D01*
X106583333Y-68740476D01*
X106392857Y-68788095D01*
X106297619Y-68835714D01*
X106250000Y-68883333D01*
X106202380Y-68978571D01*
X119202380Y-157059523D02*
X119202380Y-156488095D01*
X119202380Y-156773809D02*
X118202380Y-156773809D01*
X118345238Y-156678571D01*
X118440476Y-156583333D01*
X118488095Y-156488095D01*
X118202380Y-157678571D02*
X118202380Y-157773809D01*
X118250000Y-157869047D01*
X118297619Y-157916666D01*
X118392857Y-157964285D01*
X118583333Y-158011904D01*
X118821428Y-158011904D01*
X119011904Y-157964285D01*
X119107142Y-157916666D01*
X119154761Y-157869047D01*
X119202380Y-157773809D01*
X119202380Y-157678571D01*
X119154761Y-157583333D01*
X119107142Y-157535714D01*
X119011904Y-157488095D01*
X118821428Y-157440476D01*
X118583333Y-157440476D01*
X118392857Y-157488095D01*
X118297619Y-157535714D01*
X118250000Y-157583333D01*
X118202380Y-157678571D01*
X106102380Y-83888095D02*
X106102380Y-83411904D01*
X106578571Y-83364285D01*
X106530952Y-83411904D01*
X106483333Y-83507142D01*
X106483333Y-83745238D01*
X106530952Y-83840476D01*
X106578571Y-83888095D01*
X106673809Y-83935714D01*
X106911904Y-83935714D01*
X107007142Y-83888095D01*
X107054761Y-83840476D01*
X107102380Y-83745238D01*
X107102380Y-83507142D01*
X107054761Y-83411904D01*
X107007142Y-83364285D01*
X106102380Y-88602380D02*
X106102380Y-88697619D01*
X106150000Y-88792857D01*
X106197619Y-88840476D01*
X106292857Y-88888095D01*
X106483333Y-88935714D01*
X106721428Y-88935714D01*
X106911904Y-88888095D01*
X107007142Y-88840476D01*
X107054761Y-88792857D01*
X107102380Y-88697619D01*
X107102380Y-88602380D01*
X107054761Y-88507142D01*
X107007142Y-88459523D01*
X106911904Y-88411904D01*
X106721428Y-88364285D01*
X106483333Y-88364285D01*
X106292857Y-88411904D01*
X106197619Y-88459523D01*
X106150000Y-88507142D01*
X106102380Y-88602380D01*
X107102380Y-73559523D02*
X107102380Y-72988095D01*
X107102380Y-73273809D02*
X106102380Y-73273809D01*
X106245238Y-73178571D01*
X106340476Y-73083333D01*
X106388095Y-72988095D01*
X106102380Y-74464285D02*
X106102380Y-73988095D01*
X106578571Y-73940476D01*
X106530952Y-73988095D01*
X106483333Y-74083333D01*
X106483333Y-74321428D01*
X106530952Y-74416666D01*
X106578571Y-74464285D01*
X106673809Y-74511904D01*
X106911904Y-74511904D01*
X107007142Y-74464285D01*
X107054761Y-74416666D01*
X107102380Y-74321428D01*
X107102380Y-74083333D01*
X107054761Y-73988095D01*
X107007142Y-73940476D01*
X118102380Y-167202380D02*
X118102380Y-167297619D01*
X118150000Y-167392857D01*
X118197619Y-167440476D01*
X118292857Y-167488095D01*
X118483333Y-167535714D01*
X118721428Y-167535714D01*
X118911904Y-167488095D01*
X119007142Y-167440476D01*
X119054761Y-167392857D01*
X119102380Y-167297619D01*
X119102380Y-167202380D01*
X119054761Y-167107142D01*
X119007142Y-167059523D01*
X118911904Y-167011904D01*
X118721428Y-166964285D01*
X118483333Y-166964285D01*
X118292857Y-167011904D01*
X118197619Y-167059523D01*
X118150000Y-167107142D01*
X118102380Y-167202380D01*
X118102380Y-162488095D02*
X118102380Y-162011904D01*
X118578571Y-161964285D01*
X118530952Y-162011904D01*
X118483333Y-162107142D01*
X118483333Y-162345238D01*
X118530952Y-162440476D01*
X118578571Y-162488095D01*
X118673809Y-162535714D01*
X118911904Y-162535714D01*
X119007142Y-162488095D01*
X119054761Y-162440476D01*
X119102380Y-162345238D01*
X119102380Y-162107142D01*
X119054761Y-162011904D01*
X119007142Y-161964285D01*
X118297619Y-146388095D02*
X118250000Y-146435714D01*
X118202380Y-146530952D01*
X118202380Y-146769047D01*
X118250000Y-146864285D01*
X118297619Y-146911904D01*
X118392857Y-146959523D01*
X118488095Y-146959523D01*
X118630952Y-146911904D01*
X119202380Y-146340476D01*
X119202380Y-146959523D01*
X118202380Y-147578571D02*
X118202380Y-147673809D01*
X118250000Y-147769047D01*
X118297619Y-147816666D01*
X118392857Y-147864285D01*
X118583333Y-147911904D01*
X118821428Y-147911904D01*
X119011904Y-147864285D01*
X119107142Y-147816666D01*
X119154761Y-147769047D01*
X119202380Y-147673809D01*
X119202380Y-147578571D01*
X119154761Y-147483333D01*
X119107142Y-147435714D01*
X119011904Y-147388095D01*
X118821428Y-147340476D01*
X118583333Y-147340476D01*
X118392857Y-147388095D01*
X118297619Y-147435714D01*
X118250000Y-147483333D01*
X118202380Y-147578571D01*
X107202380Y-78459523D02*
X107202380Y-77888095D01*
X107202380Y-78173809D02*
X106202380Y-78173809D01*
X106345238Y-78078571D01*
X106440476Y-77983333D01*
X106488095Y-77888095D01*
X106202380Y-79078571D02*
X106202380Y-79173809D01*
X106250000Y-79269047D01*
X106297619Y-79316666D01*
X106392857Y-79364285D01*
X106583333Y-79411904D01*
X106821428Y-79411904D01*
X107011904Y-79364285D01*
X107107142Y-79316666D01*
X107154761Y-79269047D01*
X107202380Y-79173809D01*
X107202380Y-79078571D01*
X107154761Y-78983333D01*
X107107142Y-78935714D01*
X107011904Y-78888095D01*
X106821428Y-78840476D01*
X106583333Y-78840476D01*
X106392857Y-78888095D01*
X106297619Y-78935714D01*
X106250000Y-78983333D01*
X106202380Y-79078571D01*
D11*
X120471428Y-62952380D02*
X120471428Y-69047619D01*
D12*
X114650000Y-148300000D02*
X116650000Y-148300000D01*
X114650000Y-165300000D02*
X116650000Y-165300000D01*
X107750000Y-73650000D02*
X111750000Y-73650000D01*
X114650000Y-163300000D02*
X116650000Y-163300000D01*
D13*
X102675000Y-79475000D02*
X102675000Y-156525000D01*
D12*
X114650000Y-153300000D02*
X116650000Y-153300000D01*
X108750000Y-72650000D02*
X110750000Y-72650000D01*
X107750000Y-83650000D02*
X111750000Y-83650000D01*
X114650000Y-155300000D02*
X116650000Y-155300000D01*
X108750000Y-85650000D02*
X110750000Y-85650000D01*
X115650000Y-167300000D02*
X115650000Y-147300000D01*
X110750000Y-70650000D02*
X108750000Y-70650000D01*
X110750000Y-87650000D02*
X108750000Y-87650000D01*
X108750000Y-86650000D02*
X110750000Y-86650000D01*
X108750000Y-74650000D02*
X110750000Y-74650000D01*
X111750000Y-68650000D02*
X107750000Y-68650000D01*
X116650000Y-156300000D02*
X114650000Y-156300000D01*
X117650000Y-147300000D02*
X113650000Y-147300000D01*
X114650000Y-158300000D02*
X116650000Y-158300000D01*
X116650000Y-157300000D02*
X113650000Y-157300000D01*
X116650000Y-166300000D02*
X114650000Y-166300000D01*
X114650000Y-160300000D02*
X116650000Y-160300000D01*
X108750000Y-82650000D02*
X110750000Y-82650000D01*
X114650000Y-161300000D02*
X116650000Y-161300000D01*
X113650000Y-162300000D02*
X117650000Y-162300000D01*
X117650000Y-167300000D02*
X113650000Y-167300000D01*
X114650000Y-150300000D02*
X116650000Y-150300000D01*
X114650000Y-154300000D02*
X116650000Y-154300000D01*
X108750000Y-81650000D02*
X110750000Y-81650000D01*
X108750000Y-84650000D02*
X110750000Y-84650000D01*
X108750000Y-71650000D02*
X110750000Y-71650000D01*
X110750000Y-77650000D02*
X108750000Y-77650000D01*
X108750000Y-75650000D02*
X110750000Y-75650000D01*
X114650000Y-164300000D02*
X116650000Y-164300000D01*
X116650000Y-149300000D02*
X114650000Y-149300000D01*
X108750000Y-69650000D02*
X110750000Y-69650000D01*
X109750000Y-78650000D02*
X111750000Y-78650000D01*
D13*
X123325000Y-156525000D02*
X123325000Y-79475000D01*
D12*
X110750000Y-78650000D02*
X107750000Y-78650000D01*
X114650000Y-151300000D02*
X116650000Y-151300000D01*
X109750000Y-88650000D02*
X109750000Y-68650000D01*
X108750000Y-76650000D02*
X110750000Y-76650000D01*
X108750000Y-79650000D02*
X110750000Y-79650000D01*
X111750000Y-88650000D02*
X107750000Y-88650000D01*
X113650000Y-152300000D02*
X117650000Y-152300000D01*
X116650000Y-159300000D02*
X114650000Y-159300000D01*
X115650000Y-157300000D02*
X117650000Y-157300000D01*
X110750000Y-80650000D02*
X108750000Y-80650000D01*
%LPC*%
D14*
X113000000Y-157330000D03*
X113000000Y-78670000D03*
D15*
X121402500Y-108362000D03*
X121402500Y-114142000D03*
D16*
X120872500Y-115572000D03*
X120872500Y-106932000D03*
X125052500Y-115572000D03*
X125052500Y-106932000D03*
D17*
X119000000Y-61000000D03*
X100000000Y-165000000D03*
X126000000Y-165000000D03*
M02*
