<svg version="1.1" xmlns="http://www.w3.org/2000/svg" viewBox="0 0 560.0000000000001 359.9471221187122" width="560.0000000000001" height="359.9471221187122">
  <!-- svg-source:excalidraw -->
  
  <defs>
    <style>
      @font-face {
        font-family: "Virgil";
        src: url("https://excalidraw.com/Virgil.woff2");
      }
      @font-face {
        font-family: "Cascadia";
        src: url("https://excalidraw.com/Cascadia.woff2");
      }
    </style>
  </defs>
  <rect x="0" y="0" width="560.0000000000001" height="359.9471221187122" fill="#ffffff"></rect><g stroke-opacity="0.2" fill-opacity="0.2" stroke-linecap="round" transform="translate(10 90.1215911128528) rotate(0 270.00000000000006 129.9127655029297)"><path d="M0 0 C0 0, 0 0, 0 0 M0 0 C0 0, 0 0, 0 0 M-0.66 5.98 C0.62 5.02, 1.8 3.9, 4.57 -0.41 M-0.13 6.34 C1.41 4.76, 2.07 3.63, 4.72 0.4 M0.14 12.02 C2.11 7.39, 6.03 4.66, 10.25 1.16 M0.08 12.5 C3.63 8.59, 7.67 4.06, 11.13 0.66 M0.7 17.5 C4.78 9.85, 12.24 4.57, 16.99 -1 M0.48 18.82 C5.23 11.43, 12.67 5.26, 15.58 1.3 M0.81 25.77 C10.63 15.47, 16.87 4.27, 23.02 -1.88 M0.96 24.65 C7.89 15.29, 17.33 4.64, 21.6 -0.14 M-1.6 32.46 C5.83 23.24, 13.59 14.43, 26.46 1.48 M-0.52 31.09 C10.69 18.62, 19.82 6.74, 25.83 0.77 M-1.36 36.48 C6.84 26.54, 15.83 19.29, 31.57 -1.88 M-0.72 37.63 C7.43 29.09, 13.39 20.98, 32.69 -0.9 M1.06 43.18 C13.05 31.02, 21.48 16.06, 36.46 -1.6 M-0.61 43.07 C9.19 33.05, 16.95 21.49, 37.68 -0.69 M-1.23 47.44 C11.93 37.13, 21.46 27.41, 43.54 0.84 M-0.93 48.37 C12.03 34.1, 25.95 19.17, 43.06 -0.18 M0.15 53.3 C14.92 36.94, 29.37 20.01, 47.37 -0.99 M0.85 53.91 C16.98 34.31, 34.61 14.53, 47.07 -0.46 M0.72 60.88 C12.61 46.32, 28.72 27.25, 53.02 0.38 M-0.27 60.11 C18.43 39.7, 36.44 19.3, 53.57 0.47 M0.85 65.92 C21.02 42.15, 40.75 20.88, 59.93 1.23 M0.19 66.69 C22.4 41.81, 43.35 17.53, 57.29 0.22 M0.94 74.97 C15.64 58.72, 27.08 40.95, 64.36 1.49 M0.68 73.5 C17.06 55.2, 33.91 35.31, 63.44 0.63 M0.58 80.52 C21.77 52.24, 45.29 25.07, 67.17 -0.35 M0.07 79.36 C25.23 51.7, 49.11 24.34, 68.97 0.28 M0.23 84.58 C17.18 62.52, 34.86 44.86, 76.26 -0.38 M0.69 85.33 C28.01 53.07, 57.43 21.82, 74.21 -0.94 M1.13 89.58 C29.8 57.37, 58.02 23.02, 78.43 1.58 M-0.49 91.31 C24.11 63.63, 50.03 33.28, 80.08 0.78 M-0.98 98 C26.62 67.25, 49.65 39.74, 85.73 0.91 M-0.81 97.32 C20.72 74.28, 42.14 49.08, 85.78 -0.33 M-0.74 103.47 C24.93 77.41, 46.49 48.67, 91.36 -0.99 M0.52 104.31 C19.3 80.9, 37.68 59.54, 89.96 0.98 M0.03 109.95 C21.9 82.25, 42.09 60.35, 96.06 -1.8 M-1.06 109.05 C22.91 83.15, 46.64 54.81, 96.4 -0.48 M2.02 115.28 C37.08 76.98, 72.3 33.82, 99.95 0.6 M-0.51 115.31 C26.37 82.74, 54.73 50.14, 101.25 0.25 M0.33 122.12 C24.56 90.9, 51.04 61.04, 104.9 -1.01 M0.07 122.55 C36.02 80.72, 73.46 38.92, 106.66 -1.18 M-1.86 129.53 C38.22 82.11, 74.24 41.45, 110.46 -0.3 M0.45 129.15 C29.07 93.39, 59.91 57.74, 111.98 0.15 M1.94 132.11 C27.52 101.67, 55.91 72.99, 115.52 2.24 M0.72 133.25 C38.88 89.69, 76.7 46.23, 116.82 -0.29 M0.62 139.16 C32.32 106.04, 59.73 73.06, 121.5 -1.62 M-0.22 139.58 C32.63 101.02, 68.19 61.93, 121.48 0.37 M-0.79 146.22 C38.94 99.19, 78.46 56.68, 127.48 -0.67 M0.37 146.72 C28.27 114.27, 56.99 81.6, 127.47 1.21 M-1.08 153.89 C26.6 118.38, 56.57 86.24, 132.02 -0.59 M0.2 151.81 C39.58 108.06, 77.61 64, 132.47 0.7 M-1.66 160.03 C30.21 123.2, 59.94 90.21, 136.8 -1.2 M-0.76 159.38 C35.75 121.02, 70.2 79.55, 137.56 -0.17 M0.87 165.85 C48.08 111.84, 92.58 55.61, 144.84 -1.71 M-0.4 165.12 C28.69 130.72, 60.54 96.32, 142.98 -0.53 M-0.85 171.98 C46.89 114.89, 96.42 56.77, 149.77 -1.41 M0.5 171.69 C36.73 129.75, 75.23 86.65, 148.95 0.22 M1.57 177.48 C32.4 135.58, 70.72 95.13, 152.61 -1.23 M-0.17 176.69 C42.15 129.68, 83.65 79.92, 154.26 0.32 M0.4 183.21 C44.62 132.91, 87.51 81.95, 160.38 -0.45 M-0.4 182.69 C45.29 129.56, 89.77 78.56, 158.39 0.51 M1.23 190.56 C43.24 139.66, 86.54 90.62, 165.48 1.37 M0.51 188.96 C36.86 149.21, 71.67 109.16, 165.18 0.06 M1.71 194.64 C51.1 137.5, 100.94 79.88, 168.43 1.28 M0.64 194.28 C37.31 152.8, 75.42 110.35, 169.8 0.01 M0.61 200.28 C56.18 137.46, 113.22 73.29, 173.63 0.73 M0.31 201.25 C49.59 142.5, 101.7 84.11, 175.84 -0.82 M-0.1 207.58 C48.84 151.2, 98.89 92.57, 178.69 -0.72 M0.48 206.69 C62.71 135.22, 124.78 61.5, 180.66 0.6 M0.33 212.64 C41.57 165.26, 83.97 117.6, 187.01 -1.19 M-0.44 212.86 C50.85 152.45, 102.2 94.14, 185.82 -0.26 M0.77 218.47 C62.2 145.61, 127 72.93, 191.05 0.7 M-0.26 219.47 C73.24 137.7, 145.59 54.02, 190.52 0.28 M0.29 225.39 C70.69 147.83, 135.47 69.75, 196.84 0.8 M0.86 224.84 C48.85 167.93, 100.11 110.56, 195.73 -0.74 M-0.09 231.23 C42.54 181.72, 87.34 131.94, 201.26 -0.82 M0.35 231.64 C47.77 177.71, 95.46 124.94, 200.71 -0.4 M-0.84 238.44 C73.85 149.91, 151 64.27, 207.11 0.3 M-0.38 237.51 C48.12 182.3, 96.57 127.28, 207.09 -0.06 M0.28 243.4 C66.5 164.76, 136.18 89.16, 212.85 -0.52 M0.36 244.51 C50.95 184.45, 101.38 127.16, 212.59 -0.18 M-0.52 251.59 C68.64 168.19, 142 85.62, 218.72 0.45 M-0.36 249.95 C71.93 167.27, 142.19 85.06, 217.99 -0.33 M-0.15 255.37 C56.92 191.14, 111.99 125.68, 222.37 -0.55 M-0.47 255.99 C77.06 167.85, 154.9 77.46, 222.21 0.15 M0.25 260.13 C87.59 160.75, 173.51 62.6, 227.42 -0.83 M1.03 261.1 C85.2 162.52, 170.2 66.09, 227.69 -0.61 M5.54 261.13 C71.12 189.22, 135.64 114.48, 233.52 -1.04 M5.74 261.47 C82.04 171.29, 158.57 83.32, 232.84 0.63 M12.1 261.09 C64.19 199.53, 118.64 137.72, 239.24 0.94 M11.61 261.28 C83.41 178.3, 156 93.83, 238.28 0.77 M17.18 260.78 C83.6 186.35, 151.08 108.47, 243.39 -0.39 M16.48 260.65 C103.84 160.31, 190.75 61.25, 243.81 -0.5 M22.86 261.52 C95.88 176.43, 166.23 95.89, 249.1 0.47 M22.95 260.5 C74.94 199.16, 126.91 137.94, 249.4 0.71 M26.31 261.27 C77.73 207.88, 125.66 151.17, 253.32 -0.47 M26.89 261.08 C91 187.06, 155.38 112.22, 254.73 -0.36 M33.67 259.69 C122.6 157.98, 210.3 57.2, 260.74 0.47 M33.44 260.25 C99.93 182.78, 167.67 105.53, 259.61 -0.2 M37.13 262.11 C127.15 158.6, 218.32 54.72, 266.13 -1.38 M37.62 261.19 C95.92 194.45, 153.63 128.46, 265.43 -0.56 M44.58 260.93 C123.61 167.12, 205.64 72.11, 270.85 0.74 M44.3 260.17 C91.68 208.59, 138.19 154.61, 270.34 0.59 M48.81 260.62 C103.2 198.89, 157.32 137.73, 275.67 1.15 M48.83 260.83 C121.92 177.83, 195.09 92.96, 275.97 -0.61 M54.53 261.78 C111.94 195.09, 167.28 128.34, 281.57 1.5 M54.36 260.64 C140.08 163.61, 224.24 67.73, 281.26 0.47 M58.08 259.82 C143.01 168.81, 223.49 74.85, 285.17 0.03 M58.99 261.26 C136.95 171.51, 214.11 83.02, 286.62 -0.6 M63.95 260.56 C120.43 194.74, 177.59 128.37, 292.65 0.82 M65.28 260.19 C136.88 176.55, 209.94 92.17, 291.62 -0.4 M69.76 260.56 C122.11 202.08, 172.75 142.69, 296.78 0.44 M70.03 261.21 C154.13 165.74, 235.83 72.3, 296.58 0.14 M74.84 260.02 C131.49 196.96, 188.65 131.1, 301.39 -0.17 M75.05 260.73 C145.95 181.1, 214.22 102.41, 301.55 -0.49 M81.01 261.53 C160.63 170.68, 239.12 82.05, 308.9 -1.18 M80.87 260.85 C141.72 192.02, 203.33 123.19, 307.9 -0.88 M85.41 259.36 C153.39 186.02, 218.02 109.9, 313.21 0.12 M85.77 260.99 C148.55 187.82, 210.95 116.59, 312.06 0.55 M91.8 261.84 C142.71 198.46, 197.52 139.12, 318.81 -1.37 M91.28 260.42 C169.36 169.71, 248.14 79.39, 317.6 -0.16 M97.41 260.34 C172.23 172.32, 250.4 82.38, 323.18 1.12 M96.54 261.2 C165.77 180.19, 236.94 98.74, 323.73 0.52 M102.31 261.07 C157.76 191.9, 216.19 126.11, 327.96 -0.17 M101.91 260.29 C171.01 181.72, 240.72 101.41, 329.49 0.01 M108.15 261.59 C179.41 179.52, 251.05 95.99, 334.49 0.05 M107.29 261.42 C151.56 208.86, 197.49 155.55, 334.07 -0.02 M112.95 261.89 C161.89 201.94, 213.52 146.11, 339.29 -1.09 M113.01 260.92 C176.75 188.25, 238.71 116.51, 339.72 -0.61 M117.15 260.5 C173.81 194.39, 233.01 129.46, 345.28 -0.14 M117.55 260.78 C176.97 195.33, 234.51 129.95, 344.13 -0.43 M124.3 259.52 C201.45 169.46, 282.05 77.66, 348.75 0.11 M123.05 260.25 C210.62 159.64, 297.62 59.01, 349.28 0.6 M128.71 260.74 C200.78 176.6, 276.9 90.34, 353.88 -1.3 M127.73 261.04 C193.2 185.23, 259.27 108.48, 354.49 0.04 M134.54 260.15 C205.74 176.04, 278.79 90.8, 361.02 -0.68 M134.04 260.26 C180.35 206.58, 226.9 154.46, 360.02 0.79 M138.17 259.85 C196.44 193.49, 252.36 129.93, 366.73 0.41 M138.46 260.8 C194.71 196.23, 250.59 132.01, 365.34 -0.39 M144.68 259.91 C198.86 200.01, 252.15 138.42, 369.81 -0.94 M144.9 260.4 C208.15 185.21, 272.6 110.72, 370.75 0.13 M150.23 259.77 C206.88 192.63, 266.86 123.09, 377.3 -1.22 M149.27 260.71 C235.38 162.41, 320.34 64.22, 376.4 0.56 M155.92 260.63 C205.54 201.42, 255.13 144.67, 381.54 0.25 M155.47 260.24 C207.77 202.89, 258.2 143.56, 381.17 0.13 M160.63 261.58 C241.22 171.06, 321.43 77.99, 387.19 -1.44 M159.95 260.86 C215.77 195.8, 272.34 130.07, 386.98 0 M164.42 259.35 C227.06 191.81, 286.39 124.36, 390.98 0.3 M165.12 260.75 C215.57 202.7, 265.89 144.89, 392.49 0.43 M171.88 260.23 C221.39 203.73, 270.91 146.12, 398.18 -0.29 M170.47 260.82 C251.83 168.88, 330.38 77.82, 397.28 0.4 M177.08 261.44 C258.31 168.6, 336.75 75.85, 402.33 1.04 M176.77 260.38 C241.38 182.07, 308.91 105.67, 402.22 0.08 M180.12 260.35 C254.93 176.74, 329.01 91.79, 407 -0.01 M181.08 260.89 C243.6 187.89, 304.89 117.15, 408.36 0.4 M187.83 259.57 C264.67 172.13, 341.91 82.17, 413.41 0.79 M186.29 260.3 C250.3 188.8, 313.39 117.2, 413.36 0.25 M190.89 260.4 C245.15 199.17, 299.55 137.54, 418.49 0.25 M192.2 260.81 C270.13 170.41, 349.67 80.25, 419.56 0.05 M198.7 260.02 C262.52 181.8, 329.74 105.75, 423.56 -0.37 M197.06 260.5 C246.38 204.64, 295.19 147.93, 423.86 0.22 M203.36 260.67 C267.05 185.67, 333.9 110.49, 429.79 -0.83 M201.89 261.11 C292.71 159.42, 381.04 57.11, 429.77 -0.49 M209.31 261.62 C281.4 176.43, 355.65 92.9, 433.65 -0.56 M208.05 261.04 C291.6 161.84, 376.24 63.99, 434.55 0.03 M212.99 260.52 C284.81 178.02, 355.13 98.32, 440.87 -1.49 M213.66 260.44 C293.03 167.22, 373.05 74.84, 440.08 0.34 M218.8 261.8 C301.37 163.99, 387 65.85, 446.07 1.2 M218.45 261.54 C271.67 198.2, 325.46 137.77, 445.16 0.47 M224.62 261.13 C295.48 180.2, 364.1 101.38, 451.93 0.47 M223.4 260.81 C293.14 180.43, 361.8 101.43, 451.15 0.27 M228.53 261.42 C277.59 203.71, 329.24 146.12, 456.82 -0.21 M229.02 260.77 C294.35 185.63, 360.05 109.88, 455.63 0.49 M234.11 260.17 C321.52 158.09, 411.03 58.62, 460.73 -0.18 M235.06 261.1 C281.09 202.93, 329.58 147.44, 461.9 -0.22 M240.68 261.42 C303.19 189.7, 366.54 117.16, 466.07 -0.26 M239.41 261.16 C295.55 195.58, 352.66 130.25, 466.14 -0.22 M244.07 259.69 C289.75 205.19, 338.12 151.82, 472.46 0.44 M244.99 260.89 C330.43 162.3, 417.56 63.01, 471.48 0.18 M250.44 259.82 C337.66 160.76, 424.69 61.6, 478.14 -0.54 M249.51 260.59 C306.87 195.52, 363.83 131.94, 477.11 0.09 M256.04 260.91 C335.96 167.99, 415.47 75.31, 481.35 -0.9 M256.28 260.57 C304.74 204.36, 352.4 148.46, 481.87 0.62 M261.06 260.36 C310.07 201.68, 362.86 139.5, 488.34 -0.89 M260.07 260.95 C310.83 206.03, 359.87 148.65, 487.84 0.01 M265.15 261.52 C345.14 167.97, 424.35 78.15, 493.02 0.6 M265.72 261.27 C319.63 197.99, 372.22 137.75, 492.68 0.01 M270.76 261.94 C346.3 177.24, 419.82 92.71, 498.77 0.64 M271.43 261.61 C342.79 177.57, 416.05 93.54, 497.88 0.21 M275.99 261 C335.55 193.41, 393.94 127.57, 503.4 1.5 M276.86 260.92 C340.87 185.3, 405.9 111.51, 503.73 0.53 M283.22 261.32 C332.61 206, 379.45 149.34, 507.79 -0.12 M282.17 260.74 C357.84 172.86, 432.97 85.19, 508.31 -0.53 M286.73 260.6 C346.33 194.25, 403.36 126.65, 513.93 1.46 M286.94 260.87 C361.61 176.87, 435.24 92.01, 514.39 0.53 M291.81 260.94 C357.08 183.91, 423.46 108.8, 520.52 -0.35 M293.09 260.54 C347.55 198.08, 402.5 135.24, 519.14 -0.03 M297.1 260.7 C363.27 187.24, 427.5 113.14, 523.6 0.6 M298.65 260.59 C349.73 200.82, 400.97 143.02, 524.95 -0.23 M303.24 261.09 C385 165.57, 467.91 70.32, 530.49 -0.67 M303.23 260.69 C360.75 195.83, 416.86 130.84, 530.57 -0.62 M308.32 260.8 C353.84 208.76, 398.86 154.94, 534.23 -0.52 M308.36 260.29 C392.65 165.43, 476.72 68.27, 535.25 0.75 M313.91 259.87 C380.93 185.38, 447.56 108.09, 539.95 0.77 M313.81 260.99 C398.55 163.77, 484.33 64.61, 539.76 0.84 M320.54 259.55 C404.29 161.4, 491.56 61.23, 539.98 5.14 M319.21 260.98 C376.89 191.86, 435.69 124.82, 540.76 5.52 M325.76 261.09 C402.76 171.48, 479.24 81.62, 541.59 12.15 M324.33 261.33 C381.97 194.35, 439.28 128.58, 540.87 12.83 M329.43 260.78 C412.45 165.82, 496.15 70.41, 539.81 19.91 M330.05 261.17 C397.19 183.23, 466.26 104.27, 539.77 18.88 M335.46 261.12 C394.63 194.73, 453.05 127.04, 540.52 24.21 M335.18 260.3 C409.13 176.05, 482.8 90.21, 540.63 23.88 M339.46 259.81 C392.86 200.71, 447.6 140.16, 540.1 29.95 M340.45 260.54 C398.04 193.04, 456.92 124.66, 540.09 30.79 M345.33 262.16 C390.98 210.95, 435.4 159.93, 541.88 35.36 M346.34 260.8 C410.95 185.44, 475.31 111.77, 540.14 36.17 M349.4 261.74 C388.19 216.08, 426.35 173.17, 540.19 44.29 M351 260.56 C392.93 214.89, 433.56 168.38, 540.46 43.75 M355.23 261.15 C423.99 182.31, 494.15 101.14, 540.46 49.67 M355.74 260.15 C404.6 204.43, 451.67 148.92, 540.29 49.28 M360.36 261.2 C425.69 190.35, 484.62 118.99, 540.33 54.29 M361.86 261.39 C407.07 209.84, 453.15 157.35, 539.71 55.19 M368.41 261.46 C429.48 192.3, 490.71 121.92, 540.51 62.04 M366.84 260.2 C410.34 211.23, 453.46 161.98, 539.69 61.21 M372.24 260.67 C432.48 192.56, 489.39 121.97, 541.06 66.72 M371.88 260.94 C420.9 206.45, 469.05 149.27, 540.81 67.16 M378.99 260.97 C413.27 219.31, 450.32 178.79, 540.08 74.6 M378.14 259.86 C411.58 220.85, 445.18 182.89, 539.77 73.15 M383.53 261.86 C418.12 220.82, 452.11 177.54, 539.26 80.66 M383.35 261.11 C433.57 202.45, 485.09 144, 539.25 79.55 M387.31 261.22 C427.57 216.31, 470.13 168.84, 539.65 84.4 M389.04 261.45 C431.29 213.38, 471.41 167.1, 539.84 84.85 M394.48 262.18 C438.73 210.17, 481.93 159.45, 540.58 93.24 M394.02 261.6 C433.34 214.33, 473.81 169.33, 540.02 91.72 M397.54 261.07 C431.78 225.99, 463.32 190.43, 541.78 97.47 M398.31 260.71 C451.37 199.21, 505.06 137.47, 541.13 97.07 M403.89 261.04 C438.75 220.86, 472.35 179.35, 538.94 104.33 M403.42 261.33 C453.52 206.78, 501.16 150.52, 540.73 103.76 M411.26 259.78 C441.16 222.81, 472.34 186.85, 540 109.27 M409.37 260.16 C448.39 217.21, 485.48 173.5, 539.23 110.65 M416.36 260.2 C449.68 220.04, 487.49 181.36, 539.37 117.29 M415.05 260.08 C452.5 217.12, 492.22 170.88, 540.65 117 M418.53 261.22 C460.11 214.19, 501.44 165.4, 538.49 122.71 M419.92 261.12 C467.52 206.06, 515.69 152.47, 539.2 123.37 M423.38 260.66 C462.13 217.5, 501.64 173.4, 540.66 128.63 M425.43 260.86 C449.02 232.15, 475.36 203.02, 540.13 128.99 M429.15 262.13 C465.94 219.47, 503.12 176.99, 538.66 133.8 M430.56 261 C459.89 226.72, 489.38 192.64, 540.94 134.27 M434.59 261.94 C464.12 232.45, 487.62 199.17, 540.53 140.26 M435.09 259.94 C461.31 232.76, 486.59 203.06, 540.45 140.14 M441.38 259.88 C468.79 228.66, 495.15 198.03, 540.7 148.47 M441.27 261.35 C473.06 222.94, 505.81 185.18, 541.24 146.84 M445.93 262.23 C474.25 230.89, 500.44 200.25, 539.14 152.46 M446.98 260.7 C472.51 232.15, 496.17 203.43, 540.15 152.76 M453.16 261.26 C475.35 233, 502.38 203.57, 539.1 159.38 M450.77 260.62 C485.75 220.3, 521.81 179.01, 541.26 157.73 M455.64 262.44 C484.05 231.15, 514.52 196.76, 538.97 164.47 M456.36 261.67 C482.13 231.32, 509.52 203.4, 541.14 165.6 M460.73 259.5 C483.68 237.28, 509.18 208.75, 542.02 170.61 M461.06 261.18 C485.31 233.53, 509.4 204.47, 539.83 171.53 M468.29 262.13 C489.11 236.82, 512.24 210.53, 539.51 175.47 M466.84 260.54 C487.2 236.89, 508.35 214.1, 541.34 176.8 M470.63 262.78 C489.26 241.66, 509.59 218.86, 541.9 182.66 M473.51 261.78 C495.79 235.18, 516.71 210.86, 540.1 183.67 M478.76 259.57 C501.24 231.25, 528.3 203.16, 540.53 189.31 M478.39 260.14 C492.8 245.34, 505.91 229.44, 540 188.64 M482.4 259.19 C505.36 233.16, 527.4 208.05, 539.53 196.98 M483.51 260.61 C500.94 240.33, 518.89 219.73, 539.59 195.05 M488.24 259.72 C508.96 241.48, 526.88 220.12, 541.48 203.29 M489.31 260.49 C505.07 244.09, 519.71 226.41, 539.08 202.35 M491.89 261.55 C508.2 246.27, 524.71 227.72, 538.65 208.98 M493.8 261.98 C510.67 241.05, 528.01 222.51, 540.82 206.95 M500.22 262.21 C508.96 249.39, 519.64 238.59, 540.07 213.13 M500.25 260.73 C515.26 243.94, 529.74 226.67, 539.81 213.02 M503.25 259.32 C516.08 248.18, 525.82 232.16, 541.32 220.72 M504.42 260.4 C518.59 245.84, 530.58 229.86, 540.67 219.8 M508.52 261.37 C519.4 250.27, 529.64 239.3, 540.36 225.52 M510.2 261.19 C515.63 252.75, 522.55 245.03, 540.85 226.18 M516.95 262.68 C522.83 253.67, 531.66 245.28, 539.27 233.72 M514.82 260.48 C521.5 253.58, 527.64 246.82, 539.68 231.96 M521.26 262.22 C524.56 254.98, 530.2 249.06, 539.4 239.05 M520.5 261.32 C528.14 252.43, 534.69 244.54, 540.81 238.73 M525.78 262.5 C533.39 255.18, 536.29 249.44, 540.51 245.93 M525.72 261.04 C530.21 256.18, 535.44 250.73, 540.72 244.66 M532.44 260.48 C534.23 257.74, 535.94 256.03, 541.94 249.32 M531 260 C534.88 256.6, 538.52 252.58, 539.96 249.84 M535.93 261.33 C538.38 259.02, 539.19 256.88, 540.64 256.34 M536.66 260.95 C538.08 258.82, 539.36 257.58, 540.55 256.44 M-0.35 259.52 C-0.35 259.52, -0.35 259.52, -0.35 259.52 M-0.35 259.52 C-0.35 259.52, -0.35 259.52, -0.35 259.52 M5.44 260.38 C4.78 258.48, 3.36 256.73, 0.28 254.96 M5.98 260.05 C3.8 258.17, 1.91 255.84, 0.17 254.67 M13.59 260.72 C10.25 255.99, 6.3 255.3, -0.37 250.26 M11.9 259.54 C9.09 256.79, 4.84 253.28, 0.3 249.82 M19.96 258.35 C13.59 255.06, 6.29 248.28, 0.88 244.6 M17.72 258.69 C13.24 255.96, 9.23 253.02, 0.16 244.85 M25.32 260.28 C16.34 255.69, 10.69 249.94, 1.84 237.73 M25.09 259.99 C17.86 254.58, 11.66 248.93, 0.99 239.74 M28.77 258.21 C20.56 249.98, 10.13 241.22, 1.56 234.25 M30.56 260.14 C24.4 253.57, 18.22 249.38, -1.04 232.71 M36.53 258.73 C26.25 250.14, 17.82 244.2, 0.82 229.53 M36.6 258.93 C24.91 249.93, 12.19 239.37, -0.04 227.96 M42.07 259.77 C26.2 249.04, 14.52 234.81, 1 221.44 M42.62 259.05 C31.57 248.01, 18.62 238.61, 0.05 222.97 M49.5 261.4 C36.78 249.13, 23.47 237.11, -0.71 216.56 M47.68 258.65 C33.47 246.62, 19.16 233.88, -0.13 218.39 M52.98 260.71 C43.25 249.4, 32.2 240.99, -0.25 213.74 M55.2 259.85 C39.6 245.36, 21.49 229.92, -0.93 211.31 M60.55 260.1 C48.54 248.91, 35.47 236.9, 0.48 206.26 M60.09 258.71 C43.22 243.99, 25.76 228.5, 0.76 207.06 M65.25 261.37 C44.91 241.81, 22.93 223.44, 0.69 201.42 M67.23 259.07 C47.2 242.54, 28.16 226.65, -0.04 200.57 M73.05 262.01 C56.4 244.05, 34.93 227.57, -0.09 194.72 M72.65 260.49 C49.64 239.85, 24.6 219.17, 0.02 196.14 M78.16 258.09 C52.87 240.06, 27.55 215.87, 1.02 189.43 M78.21 258.77 C53.44 237.96, 28.2 215.93, -0.96 190.77 M86.44 259.02 C53.63 229.98, 19.53 202.62, 1.44 186.74 M86.3 260.54 C54.88 235.27, 26.55 209.94, 0.36 185.96 M91.29 259.92 C69.29 240.09, 48.28 221.86, 0.22 181.4 M90.99 259.16 C67.33 240.67, 44.18 218.75, -1.05 181.05 M96.72 259.68 C69.6 235.3, 40.55 210.61, 1.21 175.82 M96.55 260.56 C58.5 226.32, 19.89 192.94, -0.13 175 M105.3 261.26 C64.94 228.18, 31.12 193.96, 0.12 167.68 M104.53 259.24 C63.34 223.31, 21.94 188.35, 0.68 169.73 M109.46 258.55 C68.15 225.76, 24.48 186.49, -0.3 164.1 M110.52 258.74 C80.95 234.78, 53.41 211.93, -0.06 163.91 M114.92 259.21 C67.91 219, 21.71 180.62, 0.83 157.26 M116.84 260.22 C88.91 236.19, 62.94 214.13, -0.42 158.28 M120.53 260.91 C94.16 235.87, 65.45 209.55, 1.69 154.46 M121.68 260.41 C95.28 235.2, 67.8 213.53, -0.65 153.47 M129.43 261.53 C88.99 221.79, 45.55 188.19, 0.81 149.85 M127.58 259.43 C92.69 226.66, 55.92 194.61, -0.69 147.32 M132.88 259.37 C89.18 220.69, 40.43 179.33, 0.28 142.45 M134.59 260.74 C97.28 226.53, 59.47 194.52, 0.2 142.65 M141.67 260.03 C96.63 221.66, 53.33 186.46, 0.8 135.84 M140.96 259.69 C97.36 220.57, 53.83 183.82, -0.1 136.63 M145.49 259.25 C96.2 215.66, 48.81 175.32, 0.86 132.29 M145.87 260.06 C94.58 214.31, 40.32 168.36, -0.09 132.55 M152.72 259.21 C95.89 211.15, 42.58 161.1, 0.58 128.84 M152.51 259.95 C116.53 228.65, 81.55 198.32, 0.46 127.8 M158 258.67 C100.13 209.44, 39.05 157.88, 1.03 121.03 M158.75 259.85 C110.32 219.26, 63.49 177.33, -0.63 122.39 M165.01 260.71 C103.18 205.69, 42.38 151.96, 0.14 115.86 M164.14 260.13 C125.42 225.34, 86.78 191.96, 0.25 117.56 M171.22 261 C109.47 207.6, 53.03 154.85, -0.66 110.11 M170.21 260.03 C129.69 224.64, 88.01 189.23, 0.4 111.7 M178.38 261.23 C139.55 225.71, 101.86 193.06, -0.16 106.99 M176.26 260.09 C124.3 212.17, 70.89 165.16, 0.88 106.09 M182.14 258.96 C128.42 214.01, 74.19 165.06, 1.14 101.43 M183.83 260.48 C135.3 220.1, 90.1 179.03, -0.9 100.17 M188.6 260.26 C113.5 194.51, 36.49 129.91, 1.31 96.24 M189.18 259.98 C144.9 223.13, 102.35 185.47, 0.15 95.46 M194.15 259.24 C119.47 192.59, 43.45 125.79, -1.37 90.75 M195.97 260.15 C132.7 206.71, 69.85 152.85, -0.45 90.88 M201.02 260.5 C141.04 207.75, 82.98 156.9, 1.45 83.65 M200.41 259.52 C155.42 221.16, 110.04 182.78, -0.42 85.24 M207.88 259.17 C140.08 198.83, 72.47 140.63, 0.71 78.01 M207.35 259.29 C139.67 200.91, 71.58 141.8, 0.18 78.88 M215.2 259.37 C148.22 204.43, 84.29 148.94, -0.65 74.38 M214.15 260.73 C145.78 198.5, 75.73 138.89, 0.73 74.42 M218.95 260.87 C146.25 196.49, 70.68 133.87, 0.41 69.67 M219.71 259.87 C152.48 202.36, 85.68 145.2, -0.91 68.97 M225.88 259.17 C172.26 214.43, 118.07 168.02, -1.12 63.1 M225.48 260.67 C141.44 185.44, 56.54 111.63, 0.8 64.44 M231 259.41 C141.45 181.09, 52.44 103.68, 0.56 57.38 M231.9 260.14 C145.67 187.63, 62.01 114.64, -0.04 58.2 M236.48 258.47 C151.7 184.11, 62.89 108.05, -0.66 52.75 M237.46 260.12 C181.72 213.56, 126.01 165, 0.46 53.11 M244.01 261.43 C150.09 174.91, 51.22 91.48, 1.05 48.31 M243.93 260.02 C155.36 183.82, 68.13 107.66, -0.06 46.9 M249.49 258.68 C153.29 176.33, 55.75 92.83, -1.04 42.29 M250.22 259.28 C156.75 179.15, 62.3 97.7, 0.5 42.06 M257.3 259.2 C156.85 174, 56.46 88.67, -0.68 35.72 M256.55 259.69 C192.98 206.69, 129.57 151.36, 0.15 36.81 M262.02 258.83 C202.86 206.88, 141.9 157.07, 0.39 32.54 M262.15 259.78 C182.25 191.46, 104.6 123.48, 0.53 32.15 M268.72 259.88 C174.85 179.79, 82.41 100.82, -1.48 27.12 M268.82 259.25 C186.63 189.38, 106.61 119.41, -0.15 26.95 M275.05 259.19 C205.61 199.43, 136.85 138.94, -0.24 20.87 M274.72 259.92 C189.89 185.94, 105.57 112.68, 0.43 21.04 M279.66 260.8 C178.09 171.33, 77.95 81.59, -0.16 15.21 M280.73 260.19 C193.7 184.14, 104.94 108.39, -0.02 15.99 M287.45 260.91 C213.94 197.01, 138.98 133.27, 0.01 11.51 M286.66 260.16 C193.01 180.05, 99.96 99.99, 0.31 11.07 M292.71 258.91 C205.9 187, 120.22 112.34, -0.07 6.5 M292.49 259.71 C178.43 158.98, 63.67 59.37, 0.02 5.77 M298.18 260.22 C215.08 185.71, 131.96 111.32, 0.36 0.34 M298.54 260.39 C212.64 186.27, 125.36 110.83, 0.44 0.28 M305.28 260.61 C211.91 176.96, 118.98 96.76, 2.68 -2.97 M305.22 260.13 C197.1 166.12, 89.6 72.39, 2.28 -2.87 M310.3 260.43 C193.28 157.67, 74.79 53.85, 8.24 -2.32 M310.93 260.09 C203.95 165.25, 95.78 70.29, 9.23 -2.26 M316.45 260.06 C222.37 178.42, 125.78 94.8, 14.39 -3.14 M316.81 260.06 C212.25 169.78, 107.71 80.3, 14.46 -2.61 M322.36 260.42 C235.02 185.57, 145.98 109.07, 21.86 -2.51 M322.9 259.93 C232.99 181.72, 142.21 102.45, 21.3 -2.33 M328.78 259.6 C217.86 164, 107.44 66.11, 26.44 -3.39 M328.74 259.56 C266.66 205.36, 203.76 149.85, 26.52 -3.4 M336.17 260.16 C242.57 175.78, 147.34 93.8, 32.38 -2.05 M336.21 260.17 C243.79 181.91, 152.14 103.21, 33.36 -3.5 M340.84 260.18 C270.02 199.93, 197.6 137.8, 38.69 -3.5 M340.81 259.86 C243.91 175.01, 147.59 91.18, 39.75 -2.56 M346.91 260.31 C278.98 197.74, 210.4 136.63, 44.36 -3.17 M347.68 260.36 C239.06 163.56, 128.35 67.98, 45.33 -2.72 M352.54 259.69 C283.65 199.8, 213.27 137.67, 51.17 -2.56 M353.02 259.44 C244.23 166.37, 134.91 71.99, 51.68 -2.66 M358.98 259.38 C285.31 194.84, 209.31 130.98, 56.88 -4.29 M359.42 259.81 C266.31 180.4, 174.17 100.05, 57.33 -3.02 M365.83 260.52 C301.16 205.08, 237.83 149.85, 64.09 -1.84 M366.31 260.35 C265.16 171.68, 164.14 84.72, 63.99 -3.09 M371.71 260.09 C308.7 205.58, 245.46 151.72, 68.83 -1.69 M371.31 259.53 C263.11 166.69, 154.85 72.65, 70.43 -2.78 M377.19 260.05 C274.36 168.6, 166.67 76.49, 74.81 -2.86 M378.43 259.94 C272.33 168.83, 165.79 77.02, 76.1 -2.67 M384.59 258.8 C266.31 157.76, 150.6 58.6, 82.67 -3.39 M383.97 259.5 C271.77 164.3, 159.86 66.47, 82.5 -2.78 M391.18 259.14 C278.28 165.9, 168.96 70.17, 87.66 -2.25 M390.71 259.3 C316.5 195.02, 243.54 130.52, 87.05 -3.53 M395.76 259.69 C310.83 185.98, 226.87 113.79, 93.08 -2.6 M396.13 260.44 C333.08 204.48, 271.23 149.6, 93.86 -3.47 M401.62 259.56 C310.27 178.37, 218.43 98.3, 101.12 -2.35 M402.8 259.54 C292.06 164.52, 182.95 69.28, 100.81 -2.53 M408.09 260.84 C335.65 193.38, 262.3 130.56, 106.66 -2.99 M408.44 260.06 C304.33 167.93, 200.12 77.6, 106.54 -3.03 M414.96 260.02 C304.66 165, 194.62 68.84, 111.57 -2.59 M414.52 260.14 C302.14 164.43, 189.75 67.87, 111.9 -2.94 M420.09 260.43 C345.65 192.18, 267.21 127.72, 117.72 -2.18 M421.16 260.38 C332.92 183.41, 247.62 109.47, 118.24 -3.5 M426.1 259.18 C350.27 193.21, 273.95 126.62, 124.64 -2.27 M426.66 259.63 C354 198.02, 281.6 135, 124.69 -2.57 M431.94 258.61 C336.09 177.77, 240.32 95.29, 131.67 -2.41 M432.28 259.47 C331.89 170.92, 231.37 84.17, 131 -2.24 M438.07 259.76 C369.77 197.49, 300.01 137.86, 136.31 -3.26 M439.08 259.76 C359.1 190.13, 276.96 120.08, 136.72 -3.2 M444.03 260.48 C358.7 186.66, 276.06 112.94, 143.93 -1.84 M445.12 260 C380.63 201.59, 314.19 144.23, 142.53 -2.42 M450.66 258.94 C367.44 185.48, 280.91 109.98, 149.53 -2.47 M450.68 260.37 C370.76 188.88, 290.38 118.61, 148.6 -3.12 M457.66 260.84 C390.69 202.06, 322.82 142.54, 155.75 -1.92 M457.68 259.74 C372.79 186.32, 287.14 112.43, 155.25 -3.49 M464.24 259.25 C363.42 176.09, 264.39 89.55, 161.4 -2.59 M463.2 260.18 C356.94 164.15, 248.7 70.32, 161.28 -3.28 M469.78 259.71 C388.29 190.02, 308.14 121.16, 166.67 -3.25 M469.87 260.23 C385.22 185.83, 299.59 111.13, 166.51 -2.6 M475.93 260.26 C405.07 200.01, 336.57 139.05, 173.72 -3.36 M475.2 259.68 C359.84 159.1, 244.54 58.42, 173.12 -3.1 M482.04 259.48 C373.98 167.72, 265.11 74.36, 179.8 -2.63 M481.24 259.43 C362.29 155.78, 243.99 53.02, 179.51 -3.08 M487.21 259.16 C374.28 161.11, 260.51 62.12, 186.19 -2.13 M488.43 259.54 C397.16 182.25, 307.49 104.26, 185.45 -3.35 M493.26 260 C411.38 188.04, 328.72 117.55, 191.27 -3.76 M493.58 259.22 C433.82 206.63, 372.53 153.4, 191.59 -2.38 M500.83 259.5 C411.92 183.17, 321.46 104.49, 197.96 -3.34 M500.31 260.25 C387.8 160.27, 274.04 60.97, 197.4 -3.1 M504.71 259.23 C432.33 197.44, 362.14 136.95, 203.04 -3.97 M506.08 259.33 C411.12 177.18, 316.25 94.6, 203.71 -2.68 M511.83 259.24 C437.54 195.94, 364.01 132.11, 210.59 -4.24 M511.87 259.28 C449.69 206.02, 388.81 153.3, 209.95 -3.6 M518.56 260.73 C427.15 181.73, 336.53 103.27, 216.1 -3.9 M518.29 260.24 C413.11 165.02, 305.5 72.71, 215.87 -2.42 M524.84 259.49 C456.69 203.06, 389.31 144.9, 222.08 -3.31 M524.68 259.72 C437.47 185.89, 352.54 111.81, 222.21 -3.09 M530.39 259.67 C427.07 167.86, 319.99 75.58, 227.48 -3.34 M530.52 259.4 C424.85 168.86, 317.95 75.78, 227.52 -3.4 M536.75 260.62 C429.97 167.77, 322.66 74.55, 235.08 -2.85 M536.01 259.7 C465.16 199.87, 393.99 137.73, 234.07 -2.82 M541.23 259.07 C448.7 180.4, 356.67 100.33, 240.05 -2.81 M541.22 258.42 C433.18 162.5, 324.18 67.65, 240.57 -3.41 M541.22 254.09 C453.61 173.95, 362.43 96.7, 245.67 -2.82 M541.02 253.19 C426.37 152.61, 311.38 52.41, 246.15 -3.12 M541.75 248.34 C446.96 166.7, 353.2 86.62, 251.91 -2.94 M541.28 248.38 C467.44 185.57, 394.07 121.75, 253.36 -2.27 M541.55 242.26 C465.03 176.31, 389.39 108.87, 258.43 -3.46 M541.15 243.24 C482.31 190.37, 424.24 140.9, 257.94 -2.56 M539.95 236.44 C431.82 140.71, 321.59 45.38, 264.9 -2.43 M540.8 237.47 C457.34 164.83, 374.29 91.71, 264.28 -2.31 M541.55 232.61 C437.3 140.4, 335.51 50.69, 271.35 -2.16 M541.84 232.12 C475.19 176.15, 409.37 119.47, 270.98 -3.2 M540.76 226.19 C450.15 145.56, 359.77 66.45, 277.44 -3.62 M541.4 227.15 C483.7 176.15, 426.07 126.2, 276.82 -3.33 M541.02 222.37 C461.35 152.36, 382.86 83.75, 282.96 -2.63 M540.88 221.87 C444.88 136.28, 346.86 51.11, 283.43 -2.74 M542.1 215.93 C482.73 165.76, 425.47 116.19, 288.32 -2.77 M540.47 216.55 C465.12 149.17, 389.01 82.85, 288.97 -3.72 M541.3 210.13 C479.57 156.62, 417.5 104.72, 294.93 -2.6 M541.41 211.51 C487.98 164.93, 435.11 118.87, 295.78 -3.2 M541.71 204.19 C460.71 133.29, 379.75 63.11, 300.59 -2.1 M541.55 204.78 C470.34 144.52, 399.97 82.17, 301.44 -3.59 M539.9 199.06 C460.77 132.6, 382.31 63.81, 306.21 -2.44 M541.61 200.73 C478.57 144.34, 416.03 89.06, 307.79 -3.19 M540.15 195.62 C495.16 156.12, 448.43 114.32, 314.39 -1.55 M540.95 195.29 C465.12 128, 388.46 62.54, 313.15 -3.06 M541.6 188.91 C485.61 141.08, 431.92 91.96, 320.88 -2.86 M541.11 190.04 C462.03 120, 381.28 50.86, 319.31 -3.26 M541.33 184 C459.33 109.81, 374.4 37.62, 326.23 -4.13 M541.5 184.62 C457.92 113.88, 375.1 41.72, 325.29 -3.42 M541.36 178.35 C462.18 108.68, 382.19 39.9, 331.54 -4.11 M541.28 179.39 C490.62 135.35, 441.15 91.7, 331.22 -3.91 M540.58 172.09 C482.41 122.75, 425.81 73.52, 336.37 -2.72 M541.21 173.61 C495.99 135.34, 451.93 95.71, 337.25 -3.13 M541.61 167.99 C486.39 122.2, 429.2 73.82, 343.46 -2.1 M540.81 168.04 C469.25 106.04, 399.82 45.91, 344.73 -3.33 M539.29 163.69 C481.27 108.34, 417.55 54.42, 349.42 -3.97 M540.53 163.34 C495.23 121.09, 450.06 82.3, 349.39 -3.45 M540.43 157.45 C503.05 124.94, 463.63 91.71, 357.28 -3.56 M541.77 157.72 C485.95 110.64, 430.61 61.83, 356.69 -3.04 M539.32 153.56 C474.53 93.5, 405.43 37.24, 362.47 -3.18 M541.11 151.83 C494.71 113.24, 451.15 74.21, 362.41 -3.2 M541.03 148.58 C474.97 90.3, 411.87 32.83, 369.63 -3.18 M541.66 148.04 C481.07 93.8, 421.07 40.92, 368.8 -2.5 M540.36 143.96 C488.82 96.63, 433.41 48.21, 374.98 -2.38 M541.54 142.83 C498.19 103.26, 453.98 64.83, 374.68 -2.82 M542.07 135.29 C489.34 89.78, 435.82 44.15, 379.62 -2.1 M541.52 135.99 C490.45 92.6, 440.37 49.69, 379.83 -3.47 M539.93 132.43 C491.49 88.7, 439.67 45.51, 386.05 -3.56 M540.83 131.51 C491.09 87.71, 438.49 42.46, 385.87 -2.07 M540.39 127.84 C490.83 83.3, 438.66 38.26, 393.95 -4.79 M540.97 126.55 C494.69 85.18, 446.73 43.86, 393.3 -4.22 M541.72 122.81 C491.76 80.95, 446.71 42.08, 399.26 -4.46 M541.61 120.16 C497.59 83.94, 454.32 46.65, 398.36 -2.96 M542.45 117.25 C509.5 88.53, 482.24 61.57, 405.68 -3.18 M541.91 114.98 C488.89 67.49, 433.47 22.39, 405.53 -3.59 M541.62 111.16 C494.39 69.96, 449.76 31.74, 412.37 -4.05 M541.48 111.06 C509.19 81.33, 477.14 54.09, 410.65 -3.68 M541.59 104.31 C501.97 70.18, 464.12 39.7, 417.3 -1.91 M540.68 105.17 C504.79 72.27, 465.91 38.15, 417.54 -2.47 M543.3 98.39 C516.87 75.44, 494.01 55.1, 421.79 -2.39 M541.1 100.55 C512.46 74.43, 481.69 46.74, 423.91 -2.2 M541.29 92.64 C507.62 66.92, 474.51 37.97, 429.96 -3.08 M541.94 94.3 C507.58 63.07, 473.04 33.87, 430.03 -3.61 M542.91 89.97 C500.4 51.18, 458.8 14.97, 436.07 -2.7 M540.53 89.11 C515.98 66.77, 493.1 46.76, 435.49 -3.39 M539.38 84.58 C503.91 50.1, 466.64 16.37, 440.39 -4.77 M540.69 82.66 C501.38 49.59, 462.83 15.17, 442.29 -2.23 M540.93 80.09 C524.24 60.84, 504.18 45.3, 448.35 -3.56 M541.2 79.37 C515.57 55.85, 490.32 34.1, 447.36 -3 M539.97 73.15 C511.75 50.02, 486.53 24.44, 454.38 -3.72 M540.24 73.74 C518.66 52.61, 494.92 32.88, 453.7 -2.77 M542.14 67.59 C509.77 43.28, 479.59 14.24, 461.32 -1.52 M541.85 68.14 C513.62 42.92, 486.37 19.26, 459.08 -2.28 M541.5 62.04 C509.82 36.02, 482.79 10.54, 467.76 -1.94 M540.3 62.15 C516.86 39.65, 491.9 19.57, 466.73 -3.44 M539.63 56.03 C521.87 38.89, 502.51 22.94, 471.97 -2.44 M540.59 56.36 C516.16 35.86, 490.58 12.63, 472.53 -3.32 M540.74 49.65 C527.12 41.22, 512.54 29.69, 478.95 -2.8 M540.87 51.69 C520.97 33.96, 500.83 16.09, 477.46 -2.36 M542.81 45.64 C521.67 30.37, 503.38 15.25, 484.37 -0.85 M540.86 47.16 C524.18 32.03, 505.1 16.33, 484.73 -2.4 M540.73 41.04 C522.2 25.18, 506.45 11.93, 489.91 -1.62 M540.32 41.27 C526.35 28.49, 510.87 14.56, 490.54 -2.15 M541.41 37.33 C525.85 21.42, 506.82 4.79, 494.64 -2.52 M541.46 35.79 C524.79 22.93, 509.04 7.03, 496.74 -2.63 M538.87 32 C530.88 21.46, 522.03 14.06, 502.92 -5.04 M541.37 31.01 C532.48 22.92, 525.84 15.64, 501.99 -3.24 M541.44 24.72 C532.92 15.94, 521.1 8.31, 507.48 -4.62 M540.51 25.67 C530.13 17.06, 519.52 6.55, 508.25 -1.95 M539.58 21.61 C532.98 11.62, 521.27 3.82, 513.33 -2.37 M541.82 20.81 C533.45 12.21, 523.01 5.46, 515.92 -3.29 M541.26 14.1 C533.61 6.45, 525.78 0.16, 521.13 -2.24 M541.49 14.39 C533.15 7.5, 524.87 0.08, 520.53 -3.85 M543.26 9.72 C537.9 5, 534.37 3.08, 526.58 -4.11 M541.56 9.76 C537.86 6.58, 534.4 2.63, 527.48 -3.69 M540.21 4.27 C538.29 3.27, 538.15 1.41, 532.43 -3.52 M541.14 3.85 C537.55 0.81, 534.41 -1.51, 533 -2.87" stroke="#228be6" stroke-width="0.5" fill="none"></path><path d="M-0.21 -0.63 C182.71 -0.33, 366.88 -0.52, 540.03 0.75 M-0.38 0.32 C179.65 -1.3, 359.82 -1.86, 539.97 -0.24 M541.14 0.67 C541.65 54.73, 539.54 109.38, 540.44 259.67 M540.07 -0.21 C540.76 83.88, 540.63 167.13, 539.51 259.16 M539.41 260.39 C329.67 259.97, 118.61 259.07, -0.54 259.03 M540.19 260.08 C406.37 258.17, 273.34 257.65, -0.36 259.82 M-1.56 259.36 C1.51 185.15, 1.48 112.05, 0.93 -0.4 M0.56 259.99 C-2.5 175.46, -2.3 90.82, 0.36 -0.37" stroke="#1864ab" stroke-width="1" fill="none"></path></g><g stroke-opacity="0.7" fill-opacity="0.7" stroke-linecap="round" transform="translate(167.59073893229163 83.43683769488405) rotate(332.3609754319974 117.12265014648438 30.868911743164062)"><path d="M-0.39 1.77 L232.75 1.09 L234.78 63.47 L-1.36 60.37" stroke="none" stroke-width="0" fill="#ced4da"></path><path d="M0.64 -1.27 C62.74 -0.13, 127.04 -1.26, 235.89 1.56 M0.71 0.81 C50.57 -0.58, 100.04 0.2, 233.48 0.74 M235.38 -0.96 C234.73 21.23, 232.2 39.9, 234.11 61.38 M235.23 -0.86 C234.29 15, 234.15 31.48, 234.84 62.73 M235.27 62.57 C141.24 59.26, 48.56 60.01, 0.81 60.67 M234.08 61.43 C176.98 60.91, 121.06 60.51, -0.75 61.04 M1.5 62.4 C0.55 47.74, 0.42 38.19, -1.6 0.09 M0.33 62.65 C0.98 41.24, -0.07 21.46, -0.93 -0.63" stroke="#ced4da" stroke-width="1" fill="none"></path></g><g stroke-linecap="round"><g stroke-opacity="0.9" fill-opacity="0.9" transform="translate(246.84766179865062 138.43322737291453) rotate(0 0.756932858603534 62.09737908974756)"><path d="M0.75 -0.14 C0.65 20.64, -0.42 104.67, -0.31 125.45 M-0.32 -1.26 C-0.09 19.1, 1.61 102.5, 1.83 123.67" stroke="#c92a2a" stroke-width="1" fill="none"></path></g><g stroke-opacity="0.9" fill-opacity="0.9" transform="translate(246.84766179865062 138.43322737291453) rotate(0 0.756932858603534 62.09737908974756)"><path d="M-9.11 93.82 C-4.15 105.75, -2.15 114.93, -0.05 124.12 M-9.12 95.6 C-4.31 104.21, -2.02 113.35, 2.6 123.15" stroke="#c92a2a" stroke-width="1" fill="none"></path></g><g stroke-opacity="0.9" fill-opacity="0.9" transform="translate(246.84766179865062 138.43322737291453) rotate(0 0.756932858603534 62.09737908974756)"><path d="M11.41 93.49 C9.7 105.66, 5.03 114.94, -0.05 124.12 M11.4 95.27 C9.64 103.97, 5.36 113.22, 2.6 123.15" stroke="#c92a2a" stroke-width="1" fill="none"></path></g></g><g stroke-opacity="0.9" fill-opacity="0.9" stroke-linecap="round" transform="translate(241.1569676254736 132.3449095018209) rotate(0 6.25274658203125 6.25274658203125)"><path d="M0.33 2.94 C0.33 2.94, 0.33 2.94, 0.33 2.94 M0.33 2.94 C0.33 2.94, 0.33 2.94, 0.33 2.94 M0.82 7.16 C2.66 6.93, 4.19 5.46, 5.69 2.16 M1.05 7.57 C2.63 6.2, 3.99 4.15, 6.32 2.33 M3.29 11.62 C5.72 9.87, 6.17 8.01, 11.78 1.95 M2.54 11.66 C5.17 9.19, 7.59 6.89, 11 3.05 M7.52 13.26 C8.33 12.74, 8.92 11.13, 12.26 7.35 M6.83 13.91 C9 11.49, 11.19 9.35, 12.18 8.11 M1.77 10.16 C1.77 10.16, 1.77 10.16, 1.77 10.16 M1.77 10.16 C1.77 10.16, 1.77 10.16, 1.77 10.16 M7.53 9.37 C5.47 8.93, 3.97 7.61, 2.67 5.15 M7.7 9.86 C6.41 8.96, 4.79 7.58, 2.43 5.24 M12.53 9.64 C8.92 7.28, 5.91 2.38, 1.91 1.31 M11.69 8.14 C8.96 5.89, 5.74 2.7, 2.27 -0.39" stroke="#ced4da" stroke-width="0.5" fill="none"></path><path d="M7.55 1.08 C8.49 1.44, 9.94 1.42, 10.71 2.61 C11.47 3.81, 12.19 6.77, 12.14 8.24 C12.09 9.71, 11.49 10.71, 10.4 11.44 C9.32 12.16, 7.07 12.81, 5.62 12.58 C4.17 12.36, 2.61 11.02, 1.71 10.1 C0.8 9.18, 0.48 8.21, 0.2 7.07 C-0.07 5.93, -0.55 4.33, 0.06 3.25 C0.68 2.17, 2.38 1.01, 3.87 0.58 C5.36 0.15, 8.19 0.5, 8.99 0.66 C9.8 0.82, 8.78 1.52, 8.71 1.54 M5.08 1.5 C6.2 0.53, 6.35 -1.05, 7.38 -0.69 C8.42 -0.33, 10.34 2.16, 11.3 3.68 C12.26 5.19, 13.11 7.46, 13.15 8.4 C13.19 9.34, 12.4 8.68, 11.53 9.32 C10.66 9.96, 9.22 11.99, 7.95 12.23 C6.69 12.47, 5.16 11.33, 3.93 10.76 C2.71 10.18, 1.05 10.04, 0.59 8.77 C0.14 7.51, 0.45 4.78, 1.22 3.15 C2 1.53, 4.69 -0.65, 5.24 -0.96 C5.79 -1.27, 4.69 0.75, 4.53 1.3" stroke="#1864ab" stroke-width="1" fill="none"></path></g><g transform="translate(264.5719659978695 139.15710432603942) rotate(0 47.5 25)"><text x="47.5" y="18" font-family="Virgil, Segoe UI Emoji" font-size="20px" fill="#1864ab" text-anchor="middle" style="white-space: pre;" direction="ltr">Center of</text><text x="47.5" y="43" font-family="Virgil, Segoe UI Emoji" font-size="20px" fill="#1864ab" text-anchor="middle" style="white-space: pre;" direction="ltr">mass</text></g><g stroke-linecap="round"><g stroke-opacity="0.7" fill-opacity="0.7" transform="translate(247.58535304214024 138.7321572231749) rotate(0 -0.36923001056703697 -63.93390553830966)"><path d="M0.48 -1.15 C0.5 -22.58, -0.23 -107.56, -0.13 -128.73 M-0.73 0.86 C-0.85 -20.37, -1.41 -105.43, -1.15 -127.29" stroke="#5f3dc4" stroke-width="1" fill="none"></path></g><g stroke-opacity="0.7" fill-opacity="0.7" transform="translate(247.58535304214024 138.7321572231749) rotate(0 -0.36923001056703697 -63.93390553830966)"><path d="M7.16 -99.3 C5.97 -105.05, 4.1 -114.54, -2.96 -126.71 M8.32 -98.24 C6.34 -108.71, 2.29 -116.58, -1.5 -127.43" stroke="#5f3dc4" stroke-width="1" fill="none"></path></g><g stroke-opacity="0.7" fill-opacity="0.7" transform="translate(247.58535304214024 138.7321572231749) rotate(0 -0.36923001056703697 -63.93390553830966)"><path d="M-13.36 -99.33 C-8.88 -105.16, -5.08 -114.64, -2.96 -126.71 M-12.2 -98.27 C-7.89 -108.55, -5.64 -116.41, -1.5 -127.43" stroke="#5f3dc4" stroke-width="1" fill="none"></path></g></g><g stroke-opacity="0.7" fill-opacity="0.7" transform="translate(139.24578395034337 11.857157223174966) rotate(0 44.5 12.5)"><text x="44.5" y="18" font-family="Virgil, Segoe UI Emoji" font-size="20px" fill="#5f3dc4" text-anchor="middle" style="white-space: pre;" direction="ltr">Buoyancy</text></g><g stroke-opacity="0.7" fill-opacity="0.7" transform="translate(267.52325994318187 237.4096474575499) rotate(0 37 12.5)"><text x="37" y="18" font-family="Virgil, Segoe UI Emoji" font-size="20px" fill="#c92a2a" text-anchor="middle" style="white-space: pre;" direction="ltr">Gravity</text></g><g stroke-linecap="round"><g stroke-opacity="0.7" fill-opacity="0.7" transform="translate(71.7311102213506 226.6995551983515) rotate(0 191.45679282583296 -97.27931852775316)"><path d="M1.15 -0.05 C64.8 -32.52, 318.29 -161.88, 381.76 -194.51" stroke="#495057" stroke-width="1.5" fill="none" stroke-dasharray="1.5 7"></path></g></g><g stroke-opacity="0.7" fill-opacity="0.7" transform="translate(210.86003159031713 159.84101851060984) rotate(0 17.0755615234375 13.759676615397098)" stroke="none" fill="#a61e4d"><path d="M 1.60,-0.05 Q 1.60,-0.05 1.67,3.08 1.74,6.22 2.44,8.91 3.13,11.60 4.50,13.97 5.87,16.34 8.96,18.62 12.05,20.90 14.37,22.09 16.69,23.28 20.28,24.10 23.86,24.91 26.84,25.27 29.81,25.64 32.06,25.91 34.31,26.19 34.51,26.25 34.72,26.31 34.90,26.43 35.08,26.56 35.20,26.73 35.33,26.90 35.40,27.11 35.47,27.31 35.46,27.53 35.46,27.75 35.39,27.95 35.32,28.15 35.19,28.32 35.05,28.49 34.87,28.61 34.69,28.73 34.48,28.79 34.27,28.84 34.06,28.83 33.84,28.82 33.64,28.73 33.44,28.65 33.28,28.51 33.12,28.37 33.01,28.18 32.90,27.99 32.86,27.78 32.81,27.57 32.84,27.36 32.86,27.14 32.96,26.95 33.05,26.75 33.20,26.60 33.35,26.44 33.54,26.34 33.74,26.24 33.95,26.21 34.16,26.18 34.38,26.22 34.59,26.25 34.78,26.36 34.97,26.46 35.11,26.62 35.26,26.78 35.35,26.98 35.44,27.17 35.46,27.39 35.48,27.60 35.43,27.81 35.38,28.02 35.27,28.21 35.15,28.39 34.99,28.53 34.82,28.67 34.62,28.74 34.42,28.82 34.20,28.83 33.99,28.84 33.99,28.84 33.99,28.84 31.74,28.57 29.48,28.30 26.37,27.93 23.25,27.56 19.36,26.64 15.46,25.73 12.92,24.43 10.38,23.13 6.92,20.48 3.46,17.83 1.88,15.10 0.31,12.37 -0.49,9.36 -1.29,6.35 -1.44,3.20 -1.60,0.05 -1.58,-0.13 -1.56,-0.32 -1.50,-0.50 -1.44,-0.69 -1.33,-0.85 -1.23,-1.01 -1.09,-1.15 -0.95,-1.28 -0.78,-1.38 -0.62,-1.47 -0.43,-1.52 -0.25,-1.58 -0.05,-1.58 0.13,-1.59 0.32,-1.55 0.51,-1.51 0.68,-1.43 0.86,-1.34 1.01,-1.22 1.15,-1.10 1.27,-0.94 1.39,-0.79 1.46,-0.61 1.53,-0.43 1.57,-0.24 1.60,-0.05 1.60,-0.05 L 1.60,-0.05 Z"></path></g><g stroke-opacity="0.8" fill-opacity="0.8" transform="translate(165.5076552882341 184.53765852525828) rotate(0 25 25)"><text x="25" y="18" font-family="Virgil, Segoe UI Emoji" font-size="20px" fill="#a61e4d" text-anchor="middle" style="white-space: pre;" direction="ltr">Tilt</text><text x="25" y="43" font-family="Virgil, Segoe UI Emoji" font-size="20px" fill="#a61e4d" text-anchor="middle" style="white-space: pre;" direction="ltr">angle</text></g><g stroke-opacity="0.6" fill-opacity="0.6" transform="translate(486.6961928858901 98.7124835578104) rotate(0 27.5 12.5)"><text x="27.5" y="18" font-family="Virgil, Segoe UI Emoji" font-size="20px" fill="#1864ab" text-anchor="middle" style="white-space: pre;" direction="ltr">Liquid</text></g></svg>